<svg width="34" height="28" viewBox="0 0 34 28" fill="none" xmlns="http://www.w3.org/2000/svg">
<path d="M30.3594 7.35938V4L17 12.3594L3.64062 4V7.35938L17 15.6406L30.3594 7.35938ZM30.3594 0.640625C31.2448 0.640625 32 0.979167 32.625 1.65625C33.3021 2.33333 33.6406 3.11458 33.6406 4V24C33.6406 24.8854 33.3021 25.6667 32.625 26.3438C32 27.0208 31.2448 27.3594 30.3594 27.3594H3.64062C2.75521 27.3594 1.97396 27.0208 1.29688 26.3438C0.671875 25.6667 0.359375 24.8854 0.359375 24V4C0.359375 3.11458 0.671875 2.33333 1.29688 1.65625C1.97396 0.979167 2.75521 0.640625 3.64062 0.640625H30.3594Z" fill="white"/>
</svg>
