<svg width="127" height="127" viewBox="0 0 127 127" fill="none" xmlns="http://www.w3.org/2000/svg">
<g clip-path="url(#clip0)">
<path d="M63.5 39.9939C74.5263 39.9939 83.4968 31.0234 83.4968 19.9968C83.4968 8.97052 74.5263 0 63.5 0C52.4737 0 43.5032 8.97052 43.5032 19.9968C43.5032 31.0234 52.4737 39.9939 63.5 39.9939ZM63.5 4.05319C72.2914 4.05319 79.4436 11.2055 79.4436 19.9968C79.4436 28.7882 72.2914 35.9407 63.5 35.9407C54.7086 35.9407 47.5564 28.7882 47.5564 19.9968C47.5564 11.2055 54.7086 4.05319 63.5 4.05319Z" fill="black"/>
<path d="M63.5 48.1003C79.662 48.1003 92.9321 60.7165 93.9781 76.6183H47.1413C46.0221 76.6183 45.1147 77.5254 45.1147 78.6449C45.1147 79.7644 46.0221 80.6715 47.1413 80.6715H96.0715C97.1907 80.6715 98.0981 79.7644 98.0981 78.6449C98.0981 59.5676 82.5776 44.0471 63.5 44.0471C44.4225 44.0471 28.902 59.5676 28.902 78.6449C28.902 79.7644 29.8094 80.6715 30.9286 80.6715H39.035C40.1542 80.6715 41.0616 79.7644 41.0616 78.6449C41.0616 77.5254 40.1542 76.6183 39.035 76.6183H33.0216C34.0679 60.7165 47.3383 48.1003 63.5 48.1003Z" fill="black"/>
<path d="M37.9401 102.063L26.8227 100.197L21.6127 90.2003C21.2636 89.5304 20.5711 89.1102 19.8155 89.1102C19.06 89.1102 18.3675 89.5304 18.0184 90.2003L12.8084 100.197L1.69103 102.063C0.946052 102.188 0.332398 102.717 0.0989346 103.435C-0.134529 104.153 0.051107 104.942 0.580184 105.481L8.47769 113.525L6.81669 124.675C6.70537 125.422 7.01881 126.169 7.63003 126.613C8.24072 127.057 9.04838 127.124 9.72445 126.788L19.8153 121.762L29.9061 126.788C30.192 126.93 30.5014 127 30.8092 127C31.2299 127 31.6479 126.869 32.0005 126.613C32.6117 126.169 32.9252 125.422 32.8139 124.675L31.1529 113.525L39.0504 105.481C39.5795 104.942 39.7651 104.153 39.5316 103.435C39.2987 102.717 38.6851 102.188 37.9401 102.063ZM27.5539 111.406C27.1089 111.859 26.9019 112.495 26.9956 113.124L28.2324 121.426L20.7191 117.684C20.1503 117.401 19.4813 117.401 18.9122 117.684L11.3987 121.426L12.6355 113.124C12.7292 112.495 12.5225 111.859 12.0772 111.406L6.19683 105.416L14.4745 104.027C15.1014 103.921 15.6427 103.528 15.9364 102.965L19.8155 95.5213L23.6947 102.965C23.9884 103.528 24.5297 103.921 25.1566 104.027L33.4343 105.416L27.5539 111.406Z" fill="black"/>
<path d="M81.6245 102.063L70.5072 100.197L65.2972 90.2003C64.9481 89.5304 64.2555 89.1102 63.5 89.1102C62.7445 89.1102 62.0519 89.5304 61.7028 90.2003L56.4928 100.197L45.3755 102.063C44.6305 102.188 44.0168 102.717 43.7834 103.435C43.5499 104.153 43.7356 104.942 44.2646 105.481L52.1621 113.525L50.5014 124.675C50.3901 125.422 50.7035 126.169 51.3148 126.613C51.9254 127.057 52.7331 127.124 53.4092 126.788L63.5 121.762L73.5908 126.788C73.8767 126.93 74.1861 127 74.4939 127C74.9146 127 75.3326 126.869 75.6852 126.613C76.2965 126.169 76.6099 125.422 76.4986 124.675L74.8379 113.525L82.7354 105.481C83.2645 104.942 83.4501 104.153 83.2166 103.435C82.9832 102.717 82.3695 102.188 81.6245 102.063ZM71.2384 111.406C70.7933 111.859 70.5863 112.495 70.6801 113.124L71.9166 121.426L64.4033 117.684C64.1188 117.543 63.8094 117.472 63.5 117.472C63.1906 117.472 62.8809 117.543 62.5967 117.684L55.0834 121.426L56.3199 113.124C56.4137 112.495 56.207 111.859 55.7616 111.406L49.8813 105.416L58.159 104.027C58.7859 103.921 59.3271 103.528 59.6208 102.965L63.5 95.5216L67.3792 102.965C67.6729 103.529 68.2141 103.922 68.841 104.027L77.1187 105.416L71.2384 111.406Z" fill="black"/>
<path d="M126.901 103.435C126.667 102.717 126.054 102.188 125.309 102.063L114.191 100.197L108.981 90.2003C108.632 89.5304 107.94 89.1102 107.184 89.1102C106.429 89.1102 105.736 89.5304 105.387 90.2003L100.177 100.197L89.0597 102.063C88.3147 102.188 87.7011 102.717 87.4676 103.435C87.2341 104.153 87.4198 104.942 87.9488 105.481L95.8463 113.525L94.1853 124.675C94.074 125.422 94.3875 126.169 94.9987 126.613C95.6094 127.057 96.417 127.124 97.0931 126.788L107.184 121.762L117.275 126.788C117.561 126.93 117.87 127 118.178 127C118.599 127 119.017 126.869 119.369 126.613C119.98 126.169 120.294 125.422 120.183 124.675L118.522 113.525L126.419 105.481C126.949 104.942 127.134 104.153 126.901 103.435ZM114.923 111.406C114.478 111.859 114.271 112.495 114.365 113.124L115.601 121.426L108.088 117.684C107.803 117.543 107.494 117.472 107.184 117.472C106.875 117.472 106.565 117.543 106.281 117.684L98.7679 121.426L100.005 113.124C100.098 112.495 99.8917 111.859 99.4464 111.406L93.566 105.416L101.844 104.027C102.471 103.921 103.012 103.528 103.306 102.965L107.185 95.5213L111.064 102.965C111.358 103.528 111.899 103.921 112.526 104.027L120.803 105.416L114.923 111.406Z" fill="black"/>
<path d="M63.5 29.1854C66.1565 29.1854 68.6838 28.0311 70.4337 26.0183C71.1679 25.1736 71.0787 23.8936 70.234 23.1591C69.389 22.4247 68.109 22.5142 67.3749 23.3588C66.3954 24.4859 64.9827 25.1322 63.5 25.1322C62.0174 25.1322 60.605 24.4859 59.6252 23.3588C58.8907 22.5142 57.6107 22.425 56.7661 23.1591C55.9214 23.8936 55.8319 25.1736 56.5664 26.0183C58.3163 28.0308 60.8436 29.1854 63.5 29.1854Z" fill="black"/>
</g>
<defs>
<clipPath id="clip0">
<rect width="127" height="127" fill="white"/>
</clipPath>
</defs>
</svg>
