<svg width="139" height="139" viewBox="0 0 139 139" fill="none" xmlns="http://www.w3.org/2000/svg">
<path d="M59.0566 103.965C57.6212 102.53 55.3779 102.393 53.7824 103.543L42.6369 86.1331C41.4022 84.2044 39.153 83.2472 36.9081 83.6987C33.95 84.2913 32.0387 87.0838 32.5578 90.0557L34.2795 99.9188C34.4563 100.931 34.0713 101.905 33.2493 102.523C32.4275 103.14 31.3852 103.24 30.4614 102.788C22.5957 98.9425 16.8961 91.8578 14.8244 83.3514L12.6428 74.3938C11.4178 69.3637 4.96764 67.1712 1.55508 70.7917C0.42489 71.9909 -0.132196 73.619 0.0266227 75.2593C2.04891 96.1123 14.1761 114.612 32.4777 124.791C31.117 126.394 31.1903 128.806 32.7025 130.319L40.787 138.404C41.169 138.785 41.6867 139 42.227 139C42.7672 139 43.2847 138.785 43.6669 138.404L67.1408 114.929C67.936 114.134 67.936 112.845 67.1408 112.05L59.0566 103.965ZM4.08043 74.8667C4.01826 74.2228 4.32802 73.7873 4.5186 73.5853C5.12184 72.9446 5.91648 73.0776 5.87277 73.076C7.23589 73.127 8.36662 74.0439 8.68616 75.3573L10.8678 84.3149C13.2267 94.0012 19.7166 102.068 28.6728 106.447C30.965 107.567 33.6562 107.311 35.6956 105.778C37.7355 104.245 38.73 101.732 38.2913 99.2183L36.5695 89.3553C36.4335 88.5775 36.9338 87.8467 37.7078 87.6914C38.2964 87.5741 38.8839 87.8236 39.207 88.3288L50.8024 106.442L35.457 121.787C35.2105 121.559 7.3396 108.476 4.08043 74.8667ZM42.2291 134.083L35.5829 127.421L56.1772 106.845L62.822 113.49L42.2291 134.083Z" fill="black"/>
<path d="M34.2494 51.803C35.3742 51.803 36.2855 50.8916 36.2855 49.7668C36.2855 48.6421 35.3742 47.7307 34.2494 47.7307H32.9724C31.8476 47.7307 30.9362 48.6421 30.9362 49.7668C30.9362 50.8916 31.8476 51.803 32.9724 51.803H34.2494Z" fill="black"/>
<path d="M19.8349 53.0214C20.7642 52.3883 21.0045 51.1216 20.3714 50.1923C19.1356 48.3785 18.3442 46.3291 18.038 44.1773H49.1832C48.1917 51.1132 42.2117 56.4625 35.006 56.4625H32.2157C29.9393 56.4625 27.759 55.9404 25.7354 54.9112C24.7333 54.4011 23.507 54.8005 22.9974 55.8028C22.4876 56.8051 22.8869 58.0309 23.889 58.5407C26.4901 59.8639 29.2915 60.5348 32.2157 60.5348H35.006C45.1481 60.5348 53.3996 52.2833 53.3996 42.1412C53.3996 41.0164 52.4882 40.105 51.3635 40.105H47.2722L39.6595 21.9129H61.6408V75.4485H56.4533C52.9237 75.4485 50.0522 78.3197 50.0522 81.8493V87.3311C50.0522 88.4558 50.9636 89.3672 52.0884 89.3672H86.9117C88.0364 89.3672 88.9478 88.4558 88.9478 87.3311V81.8493C88.9478 78.3197 86.0766 75.4485 82.547 75.4485H77.3595V21.9129H99.3407L91.7283 40.105H87.6368C86.512 40.105 85.6007 41.0164 85.6007 42.1412C85.6007 52.2833 93.8521 60.5348 103.994 60.5348H106.785C116.927 60.5348 125.178 52.2833 125.178 42.1412C125.178 41.0164 124.267 40.105 123.142 40.105H119.051L111.438 21.9129H115.696C116.821 21.9129 117.732 21.0015 117.732 19.8767V17.3356C117.732 14.7039 116.338 12.3927 114.25 11.0986L115.472 9.87633C116.267 9.08115 116.267 7.79187 115.472 6.99697C114.677 6.20206 113.388 6.20179 112.592 6.99724L109.587 10.0023H100.767C99.6426 10.0023 98.7313 10.9137 98.7313 12.0384C98.7313 13.1632 99.6426 14.0746 100.767 14.0746H110.399C112.197 14.0746 113.66 15.5376 113.66 17.3356V17.8406H25.3409V17.3356C25.3409 15.5376 26.8039 14.0746 28.6022 14.0746H92.6261C93.7509 14.0746 94.6623 13.1632 94.6623 12.0384C94.6623 10.9137 93.7509 10.0023 92.6261 10.0023H79.3937V9.89371C79.3934 4.43823 74.9555 0 69.5 0C64.0448 0 59.6068 4.43823 59.6068 9.89343V10.002H29.4132L26.4081 6.99697C25.6126 6.20179 24.3234 6.20152 23.5287 6.9967C22.7333 7.79187 22.7333 9.08115 23.5285 9.87606L24.7507 11.0983C22.663 12.3922 21.2686 14.7036 21.2686 17.3354V19.8765C21.2686 21.0012 22.18 21.9126 23.3048 21.9126H27.5622L19.9495 40.1048H15.8582C14.7335 40.1048 13.8221 41.0161 13.8221 42.1409C13.8221 45.8507 14.9232 49.4275 17.0061 52.485C17.6392 53.4146 18.9062 53.6551 19.8349 53.0214ZM63.6788 9.89343C63.6788 6.68367 66.2902 4.07227 69.5 4.07227C72.7098 4.07227 75.3212 6.68367 75.3212 9.89343V10.002H63.6788V9.89343ZM84.8755 81.8493V85.295H54.1245V81.8493C54.1245 80.5654 55.1692 79.5208 56.4533 79.5208H82.5467C83.8308 79.5208 84.8755 80.5654 84.8755 81.8493ZM106.785 56.4625H103.994C96.7883 56.4625 90.8085 51.1132 89.8168 44.1773H120.962C119.97 51.1129 113.99 56.4625 106.785 56.4625ZM107.023 21.9129L114.636 40.105H96.1427L103.755 21.9129H107.023ZM73.2869 21.9129V75.4485H65.7133V21.9129H73.2869ZM31.9768 21.9129H35.2449L42.8576 40.105H24.3641L31.9768 21.9129Z" fill="black"/>
<path d="M106.028 47.7307H104.751C103.626 47.7307 102.715 48.6421 102.715 49.7668C102.715 50.8916 103.626 51.803 104.751 51.803H106.028C107.152 51.803 108.064 50.8916 108.064 49.7668C108.064 48.6421 107.152 47.7307 106.028 47.7307Z" fill="black"/>
<path d="M137.445 70.7917C134.04 67.1812 127.59 69.3319 126.357 74.3937L124.175 83.3516C122.103 91.8583 116.404 98.943 108.538 102.789C107.614 103.24 106.572 103.141 105.75 102.523C104.928 101.905 104.543 100.932 104.72 99.919L106.442 90.0559C106.961 87.084 105.05 84.2915 102.091 83.6986C99.8463 83.2493 97.5976 84.2044 96.3629 86.1333L85.2173 103.544C83.6216 102.393 81.378 102.531 79.9429 103.965L71.8584 112.05C71.0632 112.845 71.0632 114.134 71.8584 114.93L95.3326 138.404C95.7303 138.801 96.2515 139 96.7725 139C97.2935 139 97.8148 138.801 98.2125 138.404L106.297 130.319C107.809 128.807 107.883 126.396 106.523 124.792C109.116 123.349 111.647 121.697 114.049 119.874C114.945 119.195 115.12 117.918 114.44 117.022C113.761 116.126 112.484 115.951 111.587 116.63C107.459 119.763 103.998 121.517 103.543 121.788L88.1971 106.442L99.7925 88.3293C100.116 87.8246 100.704 87.5762 101.291 87.6918C102.066 87.8471 102.566 88.578 102.43 89.3558L100.708 99.2188C100.269 101.732 101.264 104.246 103.304 105.779C105.343 107.311 108.035 107.567 110.326 106.447C119.283 102.068 125.772 94.0014 128.132 84.3154L130.313 75.3575C131.027 72.426 135.157 72.4173 134.919 74.8669C133.579 88.683 127.405 101.682 117.533 111.468C116.734 112.26 116.729 113.549 117.52 114.348C118.312 115.146 119.601 115.152 120.4 114.36C130.945 103.906 137.541 90.0198 138.972 75.2598C139.132 73.6195 138.575 71.9908 137.445 70.7917ZM96.7728 134.084L76.1796 113.491L82.841 106.845L103.417 127.439L96.7728 134.084Z" fill="black"/>
</svg>
