<svg width="155" height="155" viewBox="0 0 155 155" fill="none" xmlns="http://www.w3.org/2000/svg">
<path d="M125.728 83.302L113.284 95.7468C113.121 95.5499 112.949 95.3585 112.765 95.1743L96.6926 79.1024C95.8038 78.2139 94.3635 78.2139 93.475 79.1024C92.5865 79.9909 92.5865 81.4315 93.475 82.3197L109.547 98.3916C110.929 99.7731 110.929 102.021 109.547 103.403C108.165 104.784 105.917 104.784 104.536 103.403L95.6051 94.4718C94.7163 93.5833 93.276 93.5833 92.3875 94.4718C91.499 95.3603 91.499 96.8009 92.3875 97.6891L101.318 106.62C101.319 106.62 101.319 106.621 101.32 106.621C101.988 107.29 102.356 108.179 102.356 109.126C102.356 110.072 101.988 110.962 101.318 111.631C100.649 112.3 99.7595 112.669 98.813 112.669C97.8666 112.669 96.9769 112.3 96.3077 111.631L87.3769 102.7C86.4881 101.812 85.0478 101.812 84.1593 102.7C83.2708 103.589 83.2708 105.029 84.1593 105.918L93.0901 114.848C94.4718 116.23 94.4718 118.478 93.0904 119.859C92.4209 120.529 91.5309 120.898 90.5844 120.898C89.638 120.898 88.7483 120.529 88.0791 119.86L79.1483 110.929C78.2595 110.04 76.8192 110.04 75.9307 110.929C75.0422 111.817 75.0422 113.258 75.9307 114.146L84.8615 123.077C86.2432 124.458 86.2432 126.707 84.8615 128.088C84.1923 128.757 83.3026 129.126 82.3562 129.126C81.4097 129.126 80.52 128.757 79.8508 128.088L74.0651 122.302C75.9085 119.23 75.5087 115.178 72.8632 112.533L72.7261 112.396C70.9637 110.633 68.576 109.868 66.27 110.098C66.1405 108.168 65.329 106.371 63.9482 104.99C62.8801 103.922 61.5824 103.22 60.2125 102.884C60.5616 101.978 60.7464 101.006 60.7464 100.006C60.7464 97.8702 59.9146 95.862 58.4042 94.3517C56.8939 92.8413 54.8857 92.0095 52.7496 92.0095C51.5322 92.0095 50.3571 92.2804 49.2914 92.7925C48.9329 91.519 48.2555 90.3175 47.2553 89.3173C44.1379 86.1995 39.0644 86.1998 35.9463 89.3173L35.008 90.2556L34.324 89.5715C33.2238 88.4713 32.618 87.0089 32.618 85.453V79.5195C32.618 78.9162 32.3783 78.3374 31.9518 77.9109L22.2393 68.1984L24.9703 65.467C25.8588 64.5785 25.8588 63.1379 24.97 62.2497C24.0818 61.3609 22.6412 61.3612 21.7527 62.2497L18.0944 65.9084C17.4045 66.5982 16.2816 66.5985 15.5917 65.9084L3.88409 54.2004C2.99559 53.3119 1.5553 53.3119 0.666498 54.2004C-0.222003 55.0889 -0.222003 56.5292 0.666498 57.4177L12.3745 69.1257C13.6066 70.3576 15.2247 70.9734 16.8427 70.9734C17.3609 70.9734 17.8775 70.903 18.3828 70.7768L28.0678 80.4614V85.4527C28.0678 88.2238 29.1471 90.8289 31.1064 92.7885L31.7907 93.4729L31.0293 94.2343C29.519 95.7446 28.6869 97.7528 28.6869 99.889C28.6869 102.025 29.5187 104.033 31.029 105.543C32.5882 107.102 34.6361 107.882 36.684 107.882C36.7165 107.882 36.7489 107.88 36.7814 107.879C36.7811 107.913 36.779 107.946 36.779 107.98C36.779 110.117 37.6108 112.125 39.1211 113.635C40.6315 115.145 42.6399 115.977 44.7758 115.977C44.8095 115.977 44.8431 115.975 44.8768 115.974C44.8516 118.055 45.6291 120.143 47.2126 121.726C48.7718 123.285 50.8197 124.065 52.8676 124.065C52.9012 124.065 52.9349 124.063 52.9683 124.062C52.9422 126.144 53.7197 128.233 55.3043 129.818L55.4415 129.955C56.9518 131.465 58.96 132.297 61.0958 132.297C63.232 132.297 65.2402 131.465 66.7505 129.955L71.0171 125.689L76.6338 131.306C78.1624 132.834 80.1948 133.676 82.3568 133.676C84.5187 133.676 86.5511 132.834 88.0797 131.306C89.6926 129.693 90.4789 127.563 90.4431 125.444C90.4904 125.445 90.5374 125.448 90.585 125.448C92.747 125.448 94.7794 124.606 96.3083 123.077C97.9221 121.463 98.7084 119.332 98.6717 117.212C98.719 117.213 98.7663 117.215 98.8136 117.215C100.886 117.215 102.959 116.426 104.536 114.849C106.065 113.32 106.907 111.288 106.907 109.126C106.907 109.078 106.904 109.031 106.904 108.984C106.95 108.985 106.996 108.987 107.042 108.987C109.114 108.987 111.187 108.198 112.765 106.621C114.481 104.905 115.261 102.604 115.112 100.355L128.947 86.5199C129.835 85.6314 129.835 84.1908 128.947 83.3026C128.057 82.4135 126.617 82.4135 125.728 83.302ZM34.2463 102.326C33.5954 101.675 33.2371 100.809 33.2371 99.889C33.2371 98.9683 33.5957 98.1028 34.2466 97.4519L39.1636 92.5349C39.8358 91.863 40.7182 91.5269 41.601 91.5269C42.4834 91.5269 43.3658 91.8627 44.0378 92.5346C45.3816 93.8787 45.3816 96.0653 44.0378 97.4088L39.1205 102.326C37.7767 103.67 35.5905 103.67 34.2463 102.326ZM44.7752 111.427C43.8548 111.427 42.9891 111.068 42.3381 110.417C41.6871 109.767 41.3289 108.901 41.3289 107.981C41.3289 107.06 41.6874 106.195 42.3384 105.544L47.2557 100.626L50.3128 97.5693C50.9638 96.9183 51.8289 96.5597 52.7496 96.5597C53.6702 96.5597 54.5357 96.9183 55.1863 97.5693C55.8373 98.2202 56.1959 99.086 56.1959 100.006C56.1959 100.927 55.8373 101.792 55.1863 102.443L47.212 110.418C46.561 111.068 45.6958 111.427 44.7752 111.427ZM50.4296 118.509C49.0857 117.165 49.0857 114.979 50.4296 113.635L55.8567 108.207C56.5286 107.536 57.4111 107.2 58.2938 107.2C59.1763 107.2 60.059 107.536 60.7306 108.208C61.3816 108.859 61.7401 109.724 61.7401 110.645C61.7401 111.565 61.3822 112.43 60.7318 113.08L55.3034 118.509C53.9599 119.853 51.7734 119.853 50.4296 118.509ZM63.532 126.738C62.881 127.389 62.0159 127.747 61.0952 127.747C60.1749 127.747 59.3091 127.389 58.6584 126.738L58.5216 126.601C57.1775 125.257 57.1775 123.07 58.5216 121.727L63.9485 116.3C63.9503 116.298 63.9518 116.296 63.9534 116.295L64.6344 115.613C65.3066 114.941 66.189 114.605 67.0718 114.605C67.9542 114.605 68.8369 114.942 69.5085 115.613L69.6453 115.75C70.9895 117.094 70.9895 119.28 69.6453 120.624L63.532 126.738Z" fill="black"/>
<path d="M154.334 63.7865C153.445 62.898 152.005 62.8977 151.116 63.7865L142.59 72.3124C142.473 72.4298 142.28 72.4316 142.16 72.3172L112.019 43.5257C111.957 43.4662 111.925 43.3925 111.924 43.3064C111.923 43.2202 111.953 43.1456 112.014 43.0849L129.891 25.2081C130.78 24.3196 130.78 22.879 129.891 21.9908C129.003 21.1023 127.562 21.1023 126.674 21.9908L108.796 39.8676C107.864 40.8004 107.359 42.0402 107.374 43.3589C107.387 44.4218 107.741 45.4225 108.375 46.2491L100.194 54.2724L92.4856 49.9733C91.4781 49.4112 90.336 49.1143 89.1824 49.1143H67.2808L65.6139 47.4477C64.065 45.8988 62.2419 44.7182 60.1952 43.9382L54.1323 41.6283L51.3306 38.8266C52.7793 36.4001 52.4675 33.2071 50.3802 31.12L41.251 21.9908C40.3625 21.1023 38.9222 21.1023 38.0334 21.9908C37.1449 22.8793 37.1449 24.3199 38.0334 25.2081L47.1626 34.3373C47.8524 35.0271 47.8524 36.1498 47.1626 36.8399L28.609 55.3935C27.7205 56.282 27.7205 57.7226 28.609 58.6108C29.0534 59.0549 29.6358 59.2773 30.218 59.2773C30.8001 59.2773 31.3825 59.0552 31.8269 58.6108L48.2534 42.1843L51.2587 45.1896C51.4856 45.4165 51.758 45.5927 52.0577 45.7071L58.5754 48.1903C59.9817 48.7263 61.2369 49.5326 62.3108 50.584C62.1728 50.7001 62.0372 50.8203 61.9079 50.9495L53.2553 59.6028C51.538 61.3197 50.5925 63.603 50.5925 66.0313C50.5925 68.4596 51.538 70.7425 53.255 72.4598C55.0293 74.2341 57.3502 75.1341 59.6814 75.1341C61.7187 75.1341 63.7635 74.4464 65.4571 73.054L72.0051 67.6709H78.8259L86.6194 75.4644C87.0638 75.9085 87.6463 76.1309 88.2284 76.1309C88.8105 76.1309 89.3929 75.9088 89.8373 75.4644C90.7258 74.5759 90.7258 73.1353 89.8373 72.2471L84.2069 66.6167C84.4323 66.2636 84.5646 65.8456 84.5646 65.3958C84.5646 64.1393 83.5462 63.1207 82.2895 63.1207H71.1897C70.6628 63.1207 70.152 63.3036 69.7449 63.6385L62.5674 69.5392C60.7525 71.0307 58.1331 70.903 56.4726 69.2425C55.6147 68.3846 55.1424 67.2444 55.1424 66.0316C55.1424 64.8188 55.6147 63.6782 56.4726 62.8206L65.1255 54.1674C65.4492 53.8434 65.88 53.6651 66.338 53.6651H89.1821C89.5616 53.6651 89.9371 53.7627 90.2687 53.9478L98.7939 58.7024C100.06 59.4089 101.669 59.1951 102.709 58.1782L111.621 49.4385L136.156 72.8748L132.584 76.4464C131.696 77.3349 131.695 78.7755 132.584 79.6637C133.028 80.1081 133.611 80.3301 134.193 80.3301C134.775 80.3301 135.357 80.1081 135.802 79.6637L139.476 75.9892C140.331 76.6223 141.35 76.9417 142.371 76.9417C143.62 76.9417 144.868 76.47 145.808 75.53L154.334 67.0044C155.222 66.1153 155.222 64.675 154.334 63.7865Z" fill="black"/>
</svg>
