<svg width="155" height="155" viewBox="0 0 155 155" fill="none" xmlns="http://www.w3.org/2000/svg">
<path d="M131.72 90.2753L131.002 90.6628C128.101 87.1426 123.075 85.7785 119.246 87.719C119.233 87.7257 119.219 87.7329 119.206 87.7399L117.51 88.6526C115.489 86.9407 112.988 85.8941 110.349 85.6558C107.711 85.4174 105.063 85.9987 102.767 87.3206L93.6382 92.2854H81.4907C78.8604 92.2819 76.2645 91.6871 73.8951 90.545L72.224 89.7367C67.4664 87.4219 62.161 86.4688 56.8952 86.9831C51.6294 87.4974 46.6087 89.4589 42.3889 92.6505C42.3493 92.6808 42.3105 92.7111 42.2736 92.7453L38.239 96.3369C36.7143 97.6911 34.9121 98.6957 32.9584 99.2804L30.667 91.7587C30.5535 91.3864 30.3234 91.0604 30.0106 90.8287C29.6978 90.5971 29.3189 90.4721 28.9296 90.4721H9.41751C9.16042 90.4721 8.90626 90.5266 8.67183 90.6322C8.4374 90.7377 8.22805 90.8918 8.05761 91.0843C7.88717 91.2767 7.75953 91.5032 7.68313 91.7487C7.60673 91.9941 7.58331 92.253 7.61442 92.5082L14.1184 145.838C14.1721 146.278 14.3851 146.684 14.7173 146.978C15.0494 147.272 15.4778 147.435 15.9215 147.435H45.188C45.4719 147.435 45.7518 147.368 46.0052 147.24C46.2587 147.113 46.4788 146.927 46.6477 146.699C46.8166 146.471 46.9297 146.206 46.978 145.927C47.0262 145.647 47.0082 145.36 46.9254 145.088L43.0807 132.472L55.055 124.904C56.6572 124.017 58.5369 123.774 60.312 124.224C60.3495 124.233 60.3874 124.241 60.4255 124.248L84.7832 128.733C91.4027 129.918 98.2275 128.954 104.26 125.983C104.337 125.945 104.412 125.902 104.482 125.853L146.612 96.9264C146.994 96.6643 147.261 96.2664 147.359 95.814C147.457 95.3615 147.379 94.8887 147.14 94.4921C145.607 91.9389 143.148 90.0756 140.276 89.2901C137.403 88.5046 134.339 88.8575 131.72 90.2753ZM120.907 90.9498C123.122 89.8409 125.909 90.75 127.69 92.4492L111.714 101.068L110.776 101.562C110.27 100.126 109.531 98.783 108.588 97.5872L120.907 90.9498ZM104.525 90.5002C104.539 90.492 104.555 90.4842 104.568 90.4757C105.999 89.6486 107.626 89.2205 109.278 89.2361C110.931 89.2516 112.549 89.7102 113.964 90.5641L105.841 94.9374C104.293 93.8072 102.526 93.012 100.653 92.6024L104.525 90.5002ZM17.5284 143.802L11.4691 94.1049H27.5834L42.7352 143.802H17.5284ZM102.531 122.783C97.2272 125.365 91.2404 126.197 85.4332 125.158L61.1354 120.684C58.4628 120.024 55.6392 120.407 53.2386 121.754C53.2105 121.77 53.1823 121.787 53.1548 121.804L41.9793 128.869L34.0174 102.758C36.4725 102.018 38.7367 100.752 40.6524 99.0473L44.6301 95.5053C48.3153 92.7347 52.6937 91.0351 57.2831 90.5936C61.8724 90.1521 66.4946 90.9859 70.6404 93.0032L72.3112 93.8115C75.1741 95.1914 78.3105 95.91 81.4886 95.9143H97.6924C100.074 95.9177 102.379 96.7502 104.214 98.2689C106.048 99.7876 107.296 101.898 107.743 104.236L95.9986 103.705C91.7291 103.513 87.4509 103.711 83.2172 104.296C82.7437 104.366 82.3171 104.62 82.0301 105.004C81.7431 105.387 81.619 105.868 81.6846 106.342C81.7503 106.816 82.0005 107.245 82.3808 107.536C82.7611 107.826 83.2407 107.955 83.7155 107.894C87.7296 107.339 91.7861 107.152 95.8343 107.335L109.656 107.96C109.683 107.96 109.711 107.962 109.738 107.962C110.22 107.962 110.682 107.77 111.023 107.43C111.363 107.089 111.555 106.627 111.555 106.145C111.555 105.851 111.542 105.56 111.524 105.27L113.42 104.271L133.445 93.4709C134.983 92.6381 136.753 92.3367 138.48 92.6135C140.207 92.8903 141.794 93.7298 142.995 95.0016L102.531 122.783Z" fill="black"/>
<path d="M23.3026 136.287C23.3026 137.419 23.638 138.524 24.2664 139.465C24.8948 140.405 25.7879 141.138 26.8328 141.571C27.8778 142.004 29.0276 142.117 30.1369 141.896C31.2462 141.676 32.2652 141.131 33.065 140.331C33.8647 139.531 34.4094 138.512 34.63 137.403C34.8507 136.294 34.7374 135.144 34.3046 134.099C33.8718 133.054 33.1388 132.161 32.1984 131.533C31.2579 130.904 30.1523 130.569 29.0213 130.569C27.5051 130.571 26.0515 131.174 24.9794 132.246C23.9073 133.318 23.3043 134.771 23.3026 136.287ZM29.0213 134.202C29.4338 134.202 29.8371 134.324 30.1801 134.553C30.5231 134.782 30.7905 135.108 30.9483 135.489C31.1062 135.87 31.1475 136.29 31.067 136.694C30.9865 137.099 30.7879 137.471 30.4962 137.762C30.2045 138.054 29.8328 138.253 29.4282 138.333C29.0236 138.414 28.6042 138.372 28.223 138.215C27.8419 138.057 27.5161 137.789 27.287 137.446C27.0578 137.103 26.9354 136.7 26.9354 136.287C26.9364 135.735 27.1565 135.205 27.5475 134.814C27.9384 134.423 28.4684 134.203 29.0213 134.202V134.202Z" fill="black"/>
<path d="M91.3114 27.3384V21.3528C91.2943 17.7073 89.8341 14.2169 87.2503 11.6452C84.6665 9.07342 81.1693 7.62964 77.5238 7.62964C73.8782 7.62964 70.3811 9.07342 67.7973 11.6452C65.2134 14.2169 63.7533 17.7073 63.7362 21.3528V27.3384C63.7533 30.9839 65.2134 34.4743 67.7973 37.046C70.3811 39.6178 73.8782 41.0616 77.5238 41.0616C81.1693 41.0616 84.6665 39.6178 87.2503 37.046C89.8341 34.4743 91.2943 30.9839 91.3114 27.3384ZM67.369 27.3384V21.3528C67.3837 18.6692 68.46 16.1005 70.3628 14.208C72.2656 12.3156 74.8401 11.2533 77.5238 11.2533C80.2074 11.2533 82.782 12.3156 84.6848 14.208C86.5876 16.1005 87.6639 18.6692 87.6786 21.3528V27.3384C87.6639 30.022 86.5876 32.5907 84.6848 34.4832C82.782 36.3756 80.2074 37.4379 77.5238 37.4379C74.8401 37.4379 72.2656 36.3756 70.3628 34.4832C68.46 32.5907 67.3837 30.022 67.369 27.3384Z" fill="black"/>
<path d="M55.2999 78.5367H99.7479C100.23 78.5367 100.692 78.3454 101.032 78.0047C101.373 77.6641 101.564 77.2021 101.564 76.7203V72.5511H131.992C132.474 72.5511 132.936 72.3597 133.277 72.0191C133.617 71.6784 133.809 71.2164 133.809 70.7347V58.945C133.807 55.4856 132.488 52.1566 130.12 49.6344C127.752 47.1122 124.513 45.5859 121.061 45.3655C120.092 45.2944 119.594 45.9077 119.19 46.4003C118.387 47.3821 117.37 48.1676 116.217 48.6968C115.063 49.226 113.805 49.4849 112.536 49.454C111.268 49.423 110.023 49.1029 108.897 48.518C107.771 47.9331 106.794 47.099 106.039 46.0791C105.866 45.8443 105.638 45.6548 105.376 45.5266C105.114 45.3984 104.825 45.3353 104.533 45.3425C102.173 45.3955 99.8692 46.0677 97.8513 47.2918C96.5191 45.7426 94.8895 44.4766 93.059 43.5687C91.2286 42.6609 89.2346 42.1296 87.1951 42.0064C86.2566 41.9682 85.7819 42.538 85.3221 43.0962C84.3792 44.2485 83.1856 45.1704 81.8325 45.7914C80.4793 46.4125 79.0021 46.7165 77.5137 46.6801C76.0252 46.6438 74.5647 46.2681 73.2434 45.5817C71.9222 44.8953 70.7751 43.9163 69.8896 42.7193C69.7164 42.4843 69.4891 42.2946 69.2268 42.1664C68.9646 42.0382 68.6753 41.9753 68.3835 41.9831C64.4 42.0752 60.612 43.7276 57.8347 46.5846C57.6052 46.8192 57.3875 47.0623 57.1753 47.3091C55.2997 46.1672 53.174 45.4999 50.9823 45.3649C50.0169 45.2938 49.5152 45.9071 49.1117 46.3997C48.3081 47.3815 47.291 48.167 46.1379 48.6962C44.9847 49.2253 43.726 49.4843 42.4576 49.4533C41.1893 49.4224 39.9447 49.1023 38.8188 48.5174C37.6928 47.9325 36.7153 47.0984 35.9606 46.0785C35.7869 45.844 35.5595 45.6547 35.2974 45.5265C35.0353 45.3984 34.7462 45.335 34.4545 45.3419C30.9065 45.4322 27.5342 46.905 25.0565 49.4461C22.5789 51.9873 21.1919 55.3958 21.1914 58.945V70.7347C21.1914 71.2164 21.3828 71.6784 21.7234 72.0191C22.0641 72.3597 22.5261 72.5511 23.0078 72.5511H53.4835V76.7203C53.4835 77.2021 53.6748 77.6641 54.0155 78.0047C54.3561 78.3454 54.8181 78.5367 55.2999 78.5367ZM103.757 49.0328C104.877 50.3039 106.254 51.3228 107.797 52.0222C109.34 52.7216 111.014 53.0855 112.708 53.09C114.402 53.0944 116.077 52.7392 117.624 52.0479C119.171 51.3566 120.553 50.3449 121.679 49.0798C124.041 49.4361 126.197 50.6274 127.756 52.4374C129.315 54.2474 130.174 56.5562 130.176 58.945V68.9183H101.564V57.2657C101.566 54.8468 100.991 52.4624 99.8857 50.3107C101.073 49.6185 102.392 49.1832 103.757 49.0328ZM67.6006 45.671C68.8565 47.1249 70.41 48.2921 72.1561 49.0937C73.9021 49.8952 75.8 50.3124 77.7212 50.3169C79.6425 50.3215 81.5423 49.9134 83.2921 49.1201C85.042 48.3269 86.601 47.1671 87.8638 45.7191C90.6529 46.1048 93.2084 47.4862 95.0589 49.6083C96.9094 51.7304 97.9301 54.4501 97.9327 57.2657V74.9039H57.1163V57.2657C57.1343 54.3826 58.2131 51.607 60.1468 49.4685C62.0805 47.33 64.7338 45.9782 67.6006 45.671ZM24.8242 68.9183V58.945C24.8396 56.4977 25.7479 54.1401 27.3786 52.3152C29.0093 50.4903 31.2502 49.3235 33.6804 49.034C34.8003 50.3047 36.177 51.3233 37.7198 52.0223C39.2625 52.7214 40.936 53.0852 42.6297 53.0895C44.3234 53.0938 45.9988 52.7386 47.545 52.0474C49.0913 51.3562 50.4732 50.3447 51.5996 49.0798C52.8502 49.2667 54.0535 49.6913 55.1446 50.3307C54.0494 52.4782 53.4801 54.8551 53.4835 57.2657V68.9183H24.8242Z" fill="black"/>
<path d="M124.834 32.7494V27.51C124.834 24.2492 123.538 21.122 121.233 18.8164C118.927 16.5107 115.8 15.2153 112.539 15.2153C109.278 15.2153 106.151 16.5107 103.846 18.8164C101.54 21.122 100.245 24.2492 100.245 27.51V32.7494C100.245 36.0101 101.54 39.1373 103.846 41.443C106.151 43.7487 109.278 45.0441 112.539 45.0441C115.8 45.0441 118.927 43.7487 121.233 41.443C123.538 39.1373 124.834 36.0101 124.834 32.7494ZM103.877 32.7494V27.51C103.877 25.2127 104.79 23.0095 106.414 21.3851C108.039 19.7607 110.242 18.8481 112.539 18.8481C114.836 18.8481 117.04 19.7607 118.664 21.3851C120.288 23.0095 121.201 25.2127 121.201 27.51V32.7494C121.201 35.0467 120.288 37.2498 118.664 38.8742C117.04 40.4987 114.836 41.4112 112.539 41.4112C110.242 41.4112 108.039 40.4987 106.414 38.8742C104.79 37.2498 103.877 35.0467 103.877 32.7494Z" fill="black"/>
<path d="M54.7555 32.7494V27.51C54.7555 25.8954 54.4375 24.2967 53.8197 22.805C53.2018 21.3134 52.2962 19.958 51.1545 18.8164C50.0129 17.6747 48.6575 16.7691 47.1659 16.1512C45.6742 15.5333 44.0755 15.2153 42.4609 15.2153C40.8463 15.2153 39.2476 15.5333 37.7559 16.1512C36.2643 16.7691 34.9089 17.6747 33.7673 18.8164C32.6256 19.958 31.72 21.3134 31.1021 22.805C30.4843 24.2967 30.1663 25.8954 30.1663 27.51V32.7494C30.1663 34.364 30.4843 35.9627 31.1021 37.4544C31.72 38.946 32.6256 40.3014 33.7673 41.443C34.9089 42.5847 36.2643 43.4903 37.7559 44.1082C39.2476 44.726 40.8463 45.0441 42.4609 45.0441C44.0755 45.0441 45.6742 44.726 47.1659 44.1082C48.6575 43.4903 50.0129 42.5847 51.1545 41.443C52.2962 40.3014 53.2018 38.946 53.8197 37.4544C54.4375 35.9627 54.7555 34.364 54.7555 32.7494ZM33.7991 32.7494V27.51C33.7991 25.2127 34.7117 23.0095 36.3361 21.3851C37.9605 19.7607 40.1636 18.8481 42.4609 18.8481C44.7582 18.8481 46.9613 19.7607 48.5857 21.3851C50.2102 23.0095 51.1227 25.2127 51.1227 27.51V32.7494C51.1227 33.8869 50.8987 35.0132 50.4634 36.0641C50.0281 37.115 49.3901 38.0699 48.5857 38.8742C47.7814 39.6786 46.8265 40.3166 45.7756 40.7519C44.7247 41.1872 43.5984 41.4112 42.4609 41.4112C41.3234 41.4112 40.1971 41.1872 39.1462 40.7519C38.0953 40.3166 37.1404 39.6786 36.3361 38.8742C35.5317 38.0699 34.8937 37.115 34.4584 36.0641C34.0231 35.0132 33.7991 33.8869 33.7991 32.7494Z" fill="black"/>
</svg>
