<svg width="138" height="139" viewBox="0 0 138 139" fill="none" xmlns="http://www.w3.org/2000/svg">
<g clip-path="url(#clip0)">
<path d="M53.0639 98.2605C52.1699 100.748 53.131 103.413 55.4014 104.743C57.6395 106.061 60.4357 105.612 62.1506 103.582L94.121 65.8098C95.4887 64.1939 95.7894 61.9928 94.9059 60.065C94.0225 58.1373 92.1644 56.94 90.0565 56.94H77.4785C76.4852 56.79 76.1528 56.3699 76.2299 55.3609L79.7058 40.1041C81.1027 34.882 73.9664 31.1503 70.529 35.3034L43.9718 65.0467C42.5416 66.6484 42.1938 68.8659 43.0643 70.8337C43.9347 72.8015 45.8042 74.0239 47.943 74.0239H59.9493C61.0089 74.1924 61.3575 74.6924 61.1537 75.7537L53.0639 98.2605ZM64.3218 72.2246C63.3234 70.7906 61.6886 69.9343 59.9496 69.9343H47.9432C46.7326 69.8108 46.2714 68.7713 46.9902 67.7811L73.5471 38.0376C74.5445 37.0545 75.9736 37.7999 75.7487 39.1891L72.2728 54.4457C71.9066 56.0517 72.2812 57.7118 73.3005 59.0007C74.3199 60.2897 75.8426 61.0288 77.4785 61.0288H90.0565C91.2541 61.1542 91.714 62.1561 91.0317 63.1563L59.061 100.929C58.0438 102.024 56.4393 101.087 56.8811 99.6528L64.9714 77.1457C65.5634 75.4986 65.3209 73.6589 64.3218 72.2246Z" fill="black"/>
<path d="M94.4486 28.2945C86.8256 23.5083 78.0256 20.9784 68.9998 20.9784C42.4372 20.9784 20.8273 42.745 20.8273 69.5C20.8273 96.255 42.4375 118.022 68.9998 118.022C95.5621 118.022 117.172 96.255 117.172 69.5C117.172 56.1414 111.896 43.6948 102.314 34.4526C101.505 33.6712 100.22 33.6993 99.4442 34.515C98.669 35.3307 98.6966 36.6248 99.5062 37.4059C108.28 45.8695 113.112 57.2674 113.112 69.5C113.112 94.0002 93.3237 113.932 68.9998 113.932C44.6759 113.932 24.8872 94.0002 24.8872 69.5C24.8872 44.9998 44.6759 25.0678 68.9998 25.0678C77.2656 25.0678 85.3232 27.3837 92.3009 31.7648C93.252 32.3618 94.5046 32.0696 95.0974 31.1113C95.6904 30.1527 95.4 28.8918 94.4486 28.2945Z" fill="black"/>
<path d="M136.002 61.8461C135.877 60.724 134.875 59.9154 133.758 60.0421C132.644 60.1678 131.842 61.1798 131.967 62.3019C135.801 92.1488 115.942 122.411 87.2765 130.627L89.6889 121.999C89.9929 120.913 89.3647 119.783 88.2853 119.477C87.2062 119.171 86.0848 119.804 85.7811 120.891L82.3976 132.991C82.0909 134.01 82.7123 135.185 83.7284 135.489C83.7528 135.497 83.7763 135.507 83.8012 135.514L95.8143 138.922C96.8642 139.229 98.018 138.604 98.3185 137.508C98.6224 136.421 97.9942 135.292 96.9148 134.986L91.635 133.488C120.515 123.582 139.918 92.3862 136.002 61.8461Z" fill="black"/>
<path d="M1.99295 77.0994C2.25441 79.7482 6.35766 79.2731 6.02799 76.6463C2.22193 46.8158 22.0758 16.5797 50.7249 8.37232L48.3125 16.9998C47.5641 19.536 51.5291 20.6816 52.2204 18.1083L55.5979 6.02912C55.9322 4.96588 55.2458 3.74453 54.1713 3.47736L42.1872 0.0771929C41.1078 -0.229236 39.9869 0.404069 39.683 1.49102C39.379 2.57797 40.0072 3.70745 41.0866 4.01361L46.3621 5.51031C24.0769 13.4979 7.30552 32.9016 2.78058 56.6248C1.558 63.3314 1.21101 70.2966 1.99295 77.0994Z" fill="black"/>
<path d="M74.4428 133.091C73.3858 133.181 72.3094 133.247 71.2435 133.285C43.6774 134.631 17.0385 115.845 8.7814 89.4086L17.4036 91.6253C18.4906 91.9042 19.5954 91.2437 19.8723 90.1499C20.1495 89.0556 19.4939 87.9422 18.4075 87.663L6.31431 84.554C5.25304 84.2599 4.07782 84.9766 3.83856 86.0575L0.758957 98.2097C0.481799 99.3041 1.13734 100.417 2.22378 100.697C3.28099 100.977 4.4194 100.324 4.6925 99.2212L6.04879 93.8696C10.4002 105.28 17.7536 115.314 27.3524 122.911C39.7603 132.763 55.5673 137.951 71.3873 137.371C72.5203 137.331 73.6644 137.261 74.7879 137.165C77.4168 136.978 77.062 132.825 74.4428 133.091Z" fill="black"/>
<path d="M135.776 38.3024C134.691 38.024 133.585 38.6835 133.308 39.7778L131.952 45.1267C122.184 18.5952 94.7357 0.25199 66.613 1.62819C65.4124 1.671 64.1979 1.74651 63.0029 1.85311C60.374 2.04749 60.7429 6.20091 63.3602 5.92638C91.9944 2.9297 120.637 21.9771 129.219 49.5904L120.597 47.3737C119.509 47.0939 118.405 47.7551 118.128 48.8491C117.851 49.9434 118.506 51.0568 119.593 51.336L131.686 54.445C132.75 54.7402 133.931 54.0189 134.164 52.9311L137.241 40.7887C137.519 39.6949 136.863 38.5815 135.776 38.3024Z" fill="black"/>
</g>
<defs>
<clipPath id="clip0">
<rect width="138" height="139" fill="white"/>
</clipPath>
</defs>
</svg>
