<svg width="139" height="139" viewBox="0 0 139 139" fill="none" xmlns="http://www.w3.org/2000/svg">
<g clip-path="url(#clip0)">
<path d="M100.777 106.645L108.799 95.2616C109.447 94.3427 109.227 93.0724 108.308 92.4246C107.389 91.7774 106.118 91.997 105.471 92.916L98.0492 103.447L94.6106 99.7284C93.8469 98.9028 92.559 98.8523 91.7334 99.6157C90.9078 100.379 90.8576 101.667 91.6207 102.493L95.7679 106.978C97.1677 108.49 99.5972 108.32 100.777 106.645Z" fill="black"/>
<path d="M134.122 124.086C134.122 118.281 131.68 112.885 127.378 109.071C128.115 106.508 128.511 103.803 128.511 101.006C128.511 84.894 115.403 71.7859 99.2907 71.7859C94.6779 71.7859 90.3124 72.8618 86.4291 74.7736L86.8535 69.5831C89.0492 68.8655 90.7634 67.0748 91.3463 64.7338C93.6056 55.654 96.4287 46.4781 99.7378 37.4619C106.495 19.046 91.1505 0 69.4999 0C62.7476 0 56.2979 1.86998 50.8479 5.4077C49.9047 6.02017 49.6365 7.28094 50.2487 8.22408C50.8614 9.16721 52.1222 9.43517 53.0651 8.82324C57.8532 5.71502 63.5365 4.07199 69.4999 4.07199C88.5041 4.07199 101.64 20.4629 95.9151 36.0594C92.556 45.2127 89.6894 54.5298 87.3948 63.751C87.097 64.9472 86.0738 65.7921 84.8486 65.8531C84.8024 65.8553 84.756 65.8567 84.7095 65.8567H54.2903C54.2439 65.8567 54.1977 65.8553 54.1513 65.8529C52.9258 65.7921 51.9026 64.9475 51.605 63.751C49.3107 54.5306 46.4438 45.2136 43.0845 36.0594C40.5586 29.1772 41.5414 21.2738 46.5266 14.8078C47.2132 13.9174 47.0479 12.639 46.1574 11.9524C45.267 11.2661 43.9888 11.4309 43.302 12.3216C37.3898 19.9894 36.2939 29.3752 39.2617 37.4621C42.5706 46.4792 45.3943 55.6548 47.6533 64.7341C48.2359 67.0748 49.9501 68.8658 52.1458 69.5831L53.9721 91.9262H53.6482C49.0468 91.9262 45.3031 95.6697 45.3031 100.271V103.996H24.9673C13.8899 103.996 4.87769 113.009 4.87769 124.086C4.87769 127.121 7.0911 129.647 9.98811 130.139V131.51C9.98784 135.64 13.3477 139 17.4778 139H121.522C125.652 139 129.012 135.64 129.012 131.51V130.138C131.909 129.647 134.122 127.121 134.122 124.086ZM124.439 101.006C124.439 114.873 113.158 126.155 99.2907 126.155C85.4238 126.155 74.1423 114.873 74.1423 101.006C74.1423 87.1394 85.4238 75.8579 99.2907 75.8579C113.158 75.8579 124.439 87.1394 124.439 101.006ZM56.2599 69.9281H82.7399L82.1315 77.3703C77.2122 80.9515 73.4495 86.0277 71.5165 91.9265H58.0582L56.2599 69.9281ZM49.3756 100.271C49.3756 97.9152 51.2926 95.9982 53.6488 95.9982H70.5014C70.2191 97.6261 70.0703 99.2989 70.0703 101.006C70.0703 102.016 70.1219 103.013 70.2223 103.996H49.3756V100.271ZM8.94941 124.086C8.94941 115.254 16.1351 108.068 24.9673 108.068H70.935C72.8462 115.739 77.7962 122.221 84.428 126.155H11.0181C9.87761 126.155 8.94941 125.227 8.94941 124.086ZM121.522 134.928H17.4778C15.5932 134.928 14.0598 133.395 14.0598 131.51V130.227H124.94V131.51C124.94 133.395 123.407 134.928 121.522 134.928ZM127.981 126.155H114.153C119.233 123.141 123.327 118.633 125.823 113.239C128.535 116.174 130.05 120.003 130.05 124.086C130.05 125.227 129.122 126.155 127.981 126.155Z" fill="black"/>
<path d="M80.6023 98.0141C81.6898 98.31 82.8067 97.6676 83.1018 96.585C85.0834 89.31 91.7407 84.2294 99.2907 84.2294C106.825 84.2294 113.478 89.2967 115.471 96.5527C115.768 97.6367 116.888 98.2747 117.973 97.9769C119.057 97.679 119.695 96.5589 119.397 95.4743C116.921 86.4561 108.653 80.1577 99.291 80.1577C89.909 80.1577 81.6364 86.4727 79.1734 95.5148C78.8775 96.5993 79.5174 97.7184 80.6023 98.0141Z" fill="black"/>
<path d="M118.039 103.592C116.949 103.319 115.843 103.984 115.571 105.075C113.708 112.558 107.013 117.783 99.2907 117.783C91.5686 117.783 84.8738 112.558 83.0101 105.077C82.738 103.985 81.6331 103.321 80.5425 103.593C79.4514 103.865 78.7874 104.97 79.0591 106.061C81.3757 115.36 89.6951 121.855 99.2907 121.855C108.887 121.855 117.206 115.36 119.522 106.06C119.794 104.968 119.13 103.864 118.039 103.592Z" fill="black"/>
</g>
<defs>
<clipPath id="clip0">
<rect width="139" height="139" fill="white"/>
</clipPath>
</defs>
</svg>
